<svg xmlns="http://www.w3.org/2000/svg" viewBox="0 0 160 48" role="img" aria-label="DeepSeek">
  <defs>
    <linearGradient id="deepseek-g" x1="9" x2="44" y1="9" y2="39" gradientUnits="userSpaceOnUse">
      <stop stop-color="#22D3EE"/>
      <stop offset="1" stop-color="#2563EB"/>
    </linearGradient>
  </defs>
  <path fill="url(#deepseek-g)" d="M25.5 8C15.3 8 8 15 8 24c0 9.5 7.2 16 17.8 16h12.7c2 0 3.5-1.6 3.5-3.5V24c0-9.4-6.8-16-16.5-16Zm.2 7.2c5.3 0 9.1 3.5 9.1 8.8v8.8h-9c-6.2 0-10.5-3.6-10.5-8.8 0-5.1 4.2-8.8 10.4-8.8Z"/>
  <path fill="#0F172A" opacity=".9" d="M24 19.5h8v5.2h-8zM19 26.8h13v5.2H19z"/>
  <text x="52" y="31" fill="#0F172A" font-family="Inter, Arial, sans-serif" font-size="22" font-weight="780" letter-spacing="-.4">DeepSeek</text>
</svg>
