<svg xmlns="http://www.w3.org/2000/svg" viewBox="0 0 48 48" role="img" aria-label="DeepSeek">
  <defs>
    <linearGradient id="deepseek-bg" x1="8" x2="40" y1="6" y2="42" gradientUnits="userSpaceOnUse">
      <stop stop-color="#DBEAFE"/>
      <stop offset="1" stop-color="#38BDF8"/>
    </linearGradient>
  </defs>
  <rect width="48" height="48" rx="14" fill="url(#deepseek-bg)"/>
  <path fill="#2563EB" d="M23.4 11C15.6 11 10 16.3 10 23.2 10 30.5 15.5 36 23.7 36h9.2c1.7 0 3.1-1.4 3.1-3.1v-9.5C36 16.1 30.8 11 23.4 11Zm.2 5.8c4.2 0 6.9 2.8 6.9 6.6v7.1h-6.9c-4.8 0-8-3-8-7.2 0-3.8 3.2-6.5 8-6.5Z"/>
  <path fill="#E0F2FE" d="M21 20h7v4h-7zM18 26h10v4H18z"/>
</svg>
