<svg xmlns="http://www.w3.org/2000/svg" viewBox="0 0 160 48" role="img" aria-label="Qwen">
  <defs><linearGradient id="qwen-series-g" x1="10" x2="46" y1="10" y2="38" gradientUnits="userSpaceOnUse"><stop stop-color="#FFB000"/><stop offset="1" stop-color="#FF6A00"/></linearGradient></defs>
  <path fill="url(#qwen-series-g)" d="M27.5 8C17.2 8 9 15.1 9 24s8.2 16 18.5 16c3.8 0 7.1-1 9.9-2.8l5.4 3.6 3.2-4.7-5-3.4c3-3 4.9-7.1 4.9-11.7C45.9 15.1 37.8 8 27.5 8Zm0 6.8c6.1 0 10.8 4 10.8 9.2s-4.7 9.2-10.8 9.2-10.9-4-10.9-9.2 4.8-9.2 10.9-9.2Z"/>
  <text x="58" y="31" fill="#111827" font-family="Inter, Arial, sans-serif" font-size="25" font-weight="780" letter-spacing="-.4">Qwen</text>
</svg>
